<svg class="svg-icon" style="width: 1em; height: 1em;vertical-align: middle;fill: currentColor;overflow: hidden;" viewBox="0 0 1024 1024" version="1.1" xmlns="http://www.w3.org/2000/svg"><path d="M796.16 158.549333c28.458667 0 51.306667 23.509333 51.306667 51.882667 0 28.778667-23.253333 51.882667-51.328 51.882667-28.458667 0-51.328-23.509333-51.328-51.882667 0-28.373333 22.869333-51.882667 51.328-51.882667M322.922667 454.848h-190.08c-14.037333 0-25.664 11.754667-25.664 25.941333 0 14.186667 11.626667 25.941333 25.664 25.941334h190.08c63.36 0 115.093333-50.666667 117.909333-114.304h110.293333c11.221333 29.184 38.890667 50.261333 72.170667 50.261333 42.517333 0 77.013333-34.858667 77.013333-77.824 0-42.965333-34.496-77.824-77.013333-77.824-34.090667 0-63.36 22.698667-73.386667 53.504h-108.266666v-36.48c0-37.290667 30.08-67.690667 66.965333-67.690667h188.48c11.626667 44.992 51.733333 77.824 99.456 77.824 56.96 0 102.656-46.613333 102.656-103.765333S852.693333 106.666667 796.16 106.666667c-47.744 0-87.850667 33.237333-99.477333 77.824h-188.48c-65.365333 0-118.293333 53.504-118.293334 119.573333v36.48H132.842667c-14.037333 0-25.664 11.754667-25.664 25.941333 0 14.186667 11.626667 25.941333 25.664 25.941334h256.64a66.922667 66.922667 0 0 1-66.56 62.421333m-190.08 176.725333h325.632c11.242667 29.184 38.912 50.261333 72.192 50.261334 42.496 0 77.013333-34.858667 77.013333-77.824 0-42.965333-34.517333-77.824-77.013333-77.824-34.090667 0-63.36 22.698667-73.386667 53.504H132.842667c-14.037333 0-25.664 11.754667-25.664 25.941333 0 14.186667 11.626667 25.941333 25.664 25.941333M796.16 865.450667c-28.458667 0-51.328-23.509333-51.328-51.882667 0-28.373333 23.253333-51.882667 51.328-51.882667 28.48 0 51.328 23.509333 51.328 51.882667 0 28.373333-23.253333 51.882667-51.328 51.882667m0-156.053334c-47.722667 0-87.829333 33.237333-99.456 77.824h-56.128c-34.496 0-69.397333-8.106667-100.672-23.104l-86.208-42.154666a280.874667 280.874667 0 0 0-122.730667-28.373334H132.842667c-14.037333 0-25.664 11.754667-25.664 25.941334 0 14.186667 11.626667 25.941333 25.664 25.941333h198.506666c34.496 0 69.376 8.106667 100.672 23.104l86.208 42.154667a280.874667 280.874667 0 0 0 122.709334 28.373333h56.149333c11.626667 44.992 51.733333 77.824 99.456 77.824 56.96 0 102.656-46.613333 102.656-103.765333-0.405333-57.152-46.506667-103.765333-103.04-103.765334" fill="#583ACA" /></svg>